<mxfile host="app.diagrams.net" modified="2020-09-18T17:39:23.640Z" agent="5.0 (Windows NT 10.0; Win64; x64) AppleWebKit/537.36 (KHTML, like Gecko) Chrome/85.0.4183.102 Safari/537.36" etag="dahhSLsgJgs5JbJ3nsuN" version="13.7.3" type="github">
  <diagram name="Page-1" id="b5b7bab2-c9e2-2cf4-8b2a-24fd1a2a6d21">
    <mxGraphModel dx="1038" dy="548" grid="1" gridSize="10" guides="1" tooltips="1" connect="1" arrows="1" fold="1" page="1" pageScale="1" pageWidth="827" pageHeight="1169" background="#ffffff" math="0" shadow="0">
      <root>
        <mxCell id="0" />
        <mxCell id="1" parent="0" />
        <mxCell id="6e0c8c40b5770093-72" value="" style="shape=folder;fontStyle=1;spacingTop=10;tabWidth=194;tabHeight=22;tabPosition=left;html=1;rounded=0;shadow=0;comic=0;labelBackgroundColor=none;strokeWidth=1;fillColor=none;fontFamily=Verdana;fontSize=10;align=center;" parent="1" vertex="1">
          <mxGeometry x="40" y="20" width="761" height="770" as="geometry" />
        </mxCell>
        <mxCell id="6e0c8c40b5770093-60" style="rounded=0;html=1;entryX=1;entryY=0.75;dashed=1;labelBackgroundColor=none;startFill=0;endArrow=open;endFill=0;endSize=10;fontFamily=Verdana;fontSize=10;entryDx=0;entryDy=0;" parent="1" source="iGuXh_x2UIS7F5zvTwWi-1" target="iGuXh_x2UIS7F5zvTwWi-3" edge="1">
          <mxGeometry relative="1" as="geometry">
            <mxPoint x="581.8287769784172" y="424.5" as="sourcePoint" />
            <mxPoint x="673.28" y="498.5" as="targetPoint" />
          </mxGeometry>
        </mxCell>
        <mxCell id="6e0c8c40b5770093-73" value="Diagram Wdrozenia" style="text;html=1;align=left;verticalAlign=top;spacingTop=-4;fontSize=10;fontFamily=Verdana" parent="1" vertex="1">
          <mxGeometry x="50" y="20" width="130" height="20" as="geometry" />
        </mxCell>
        <mxCell id="iGuXh_x2UIS7F5zvTwWi-1" value="Komputer admina" style="shape=cube;whiteSpace=wrap;html=1;boundedLbl=1;backgroundOutline=1;darkOpacity=0.05;darkOpacity2=0.1;" vertex="1" parent="1">
          <mxGeometry x="340" y="140" width="120" height="80" as="geometry" />
        </mxCell>
        <mxCell id="iGuXh_x2UIS7F5zvTwWi-2" value="Klient" style="shape=module;align=left;spacingLeft=20;align=center;verticalAlign=top;" vertex="1" parent="1">
          <mxGeometry x="110" y="330" width="140" height="40" as="geometry" />
        </mxCell>
        <mxCell id="iGuXh_x2UIS7F5zvTwWi-3" value="Server" style="shape=module;align=left;spacingLeft=20;align=center;verticalAlign=top;" vertex="1" parent="1">
          <mxGeometry x="110" y="120" width="140" height="40" as="geometry" />
        </mxCell>
        <mxCell id="iGuXh_x2UIS7F5zvTwWi-4" value="Telefon" style="shape=cube;whiteSpace=wrap;html=1;boundedLbl=1;backgroundOutline=1;darkOpacity=0.05;darkOpacity2=0.1;" vertex="1" parent="1">
          <mxGeometry x="354" y="280" width="120" height="80" as="geometry" />
        </mxCell>
        <mxCell id="iGuXh_x2UIS7F5zvTwWi-5" value="Komputer&amp;nbsp;" style="shape=cube;whiteSpace=wrap;html=1;boundedLbl=1;backgroundOutline=1;darkOpacity=0.05;darkOpacity2=0.1;" vertex="1" parent="1">
          <mxGeometry x="360.5" y="390" width="120" height="80" as="geometry" />
        </mxCell>
        <mxCell id="iGuXh_x2UIS7F5zvTwWi-7" style="rounded=0;html=1;entryX=1;entryY=0.5;dashed=1;labelBackgroundColor=none;startFill=0;endArrow=open;endFill=0;endSize=10;fontFamily=Verdana;fontSize=10;entryDx=0;entryDy=0;" edge="1" parent="1" source="iGuXh_x2UIS7F5zvTwWi-4" target="iGuXh_x2UIS7F5zvTwWi-2">
          <mxGeometry relative="1" as="geometry">
            <mxPoint x="350" y="178" as="sourcePoint" />
            <mxPoint x="260" y="160" as="targetPoint" />
          </mxGeometry>
        </mxCell>
        <mxCell id="iGuXh_x2UIS7F5zvTwWi-8" style="rounded=0;html=1;entryX=1;entryY=0.75;dashed=1;labelBackgroundColor=none;startFill=0;endArrow=open;endFill=0;endSize=10;fontFamily=Verdana;fontSize=10;entryDx=0;entryDy=0;exitX=0;exitY=0;exitDx=0;exitDy=30;exitPerimeter=0;" edge="1" parent="1" source="iGuXh_x2UIS7F5zvTwWi-5" target="iGuXh_x2UIS7F5zvTwWi-2">
          <mxGeometry relative="1" as="geometry">
            <mxPoint x="360" y="188" as="sourcePoint" />
            <mxPoint x="270" y="170" as="targetPoint" />
          </mxGeometry>
        </mxCell>
        <mxCell id="iGuXh_x2UIS7F5zvTwWi-9" value="LAN" style="shape=cube;whiteSpace=wrap;html=1;boundedLbl=1;backgroundOutline=1;darkOpacity=0.05;darkOpacity2=0.1;" vertex="1" parent="1">
          <mxGeometry x="520" y="200" width="120" height="80" as="geometry" />
        </mxCell>
        <mxCell id="iGuXh_x2UIS7F5zvTwWi-10" value="Internet" style="shape=cube;whiteSpace=wrap;html=1;boundedLbl=1;backgroundOutline=1;darkOpacity=0.05;darkOpacity2=0.1;" vertex="1" parent="1">
          <mxGeometry x="530" y="320" width="120" height="80" as="geometry" />
        </mxCell>
        <mxCell id="iGuXh_x2UIS7F5zvTwWi-11" value="" style="endArrow=none;html=1;" edge="1" parent="1" source="iGuXh_x2UIS7F5zvTwWi-4" target="iGuXh_x2UIS7F5zvTwWi-10">
          <mxGeometry width="50" height="50" relative="1" as="geometry">
            <mxPoint x="290" y="420" as="sourcePoint" />
            <mxPoint x="340" y="370" as="targetPoint" />
          </mxGeometry>
        </mxCell>
        <mxCell id="iGuXh_x2UIS7F5zvTwWi-13" value="" style="endArrow=none;html=1;entryX=0;entryY=0;entryDx=10;entryDy=70;entryPerimeter=0;" edge="1" parent="1" source="iGuXh_x2UIS7F5zvTwWi-5" target="iGuXh_x2UIS7F5zvTwWi-10">
          <mxGeometry width="50" height="50" relative="1" as="geometry">
            <mxPoint x="510" y="440" as="sourcePoint" />
            <mxPoint x="560" y="390" as="targetPoint" />
          </mxGeometry>
        </mxCell>
        <mxCell id="iGuXh_x2UIS7F5zvTwWi-14" value="" style="endArrow=none;html=1;" edge="1" parent="1" source="iGuXh_x2UIS7F5zvTwWi-1" target="iGuXh_x2UIS7F5zvTwWi-9">
          <mxGeometry width="50" height="50" relative="1" as="geometry">
            <mxPoint x="290" y="420" as="sourcePoint" />
            <mxPoint x="340" y="370" as="targetPoint" />
          </mxGeometry>
        </mxCell>
        <mxCell id="iGuXh_x2UIS7F5zvTwWi-15" value="" style="endArrow=none;html=1;" edge="1" parent="1" source="iGuXh_x2UIS7F5zvTwWi-10" target="iGuXh_x2UIS7F5zvTwWi-9">
          <mxGeometry width="50" height="50" relative="1" as="geometry">
            <mxPoint x="560" y="330" as="sourcePoint" />
            <mxPoint x="610" y="280" as="targetPoint" />
          </mxGeometry>
        </mxCell>
        <mxCell id="iGuXh_x2UIS7F5zvTwWi-16" value="Server www" style="shape=cube;whiteSpace=wrap;html=1;boundedLbl=1;backgroundOutline=1;darkOpacity=0.05;darkOpacity2=0.1;" vertex="1" parent="1">
          <mxGeometry x="670" y="90" width="120" height="80" as="geometry" />
        </mxCell>
        <mxCell id="iGuXh_x2UIS7F5zvTwWi-17" value="Server baz danych" style="shape=cube;whiteSpace=wrap;html=1;boundedLbl=1;backgroundOutline=1;darkOpacity=0.05;darkOpacity2=0.1;" vertex="1" parent="1">
          <mxGeometry x="670" y="210" width="120" height="80" as="geometry" />
        </mxCell>
        <mxCell id="iGuXh_x2UIS7F5zvTwWi-18" value="" style="endArrow=none;html=1;" edge="1" parent="1" source="iGuXh_x2UIS7F5zvTwWi-9" target="iGuXh_x2UIS7F5zvTwWi-16">
          <mxGeometry width="50" height="50" relative="1" as="geometry">
            <mxPoint x="640" y="190" as="sourcePoint" />
            <mxPoint x="690" y="140" as="targetPoint" />
          </mxGeometry>
        </mxCell>
        <mxCell id="iGuXh_x2UIS7F5zvTwWi-19" value="" style="endArrow=none;html=1;" edge="1" parent="1" source="iGuXh_x2UIS7F5zvTwWi-9" target="iGuXh_x2UIS7F5zvTwWi-17">
          <mxGeometry width="50" height="50" relative="1" as="geometry">
            <mxPoint x="640" y="290" as="sourcePoint" />
            <mxPoint x="690" y="240" as="targetPoint" />
          </mxGeometry>
        </mxCell>
      </root>
    </mxGraphModel>
  </diagram>
</mxfile>
